# xmcd
#
# Track frame offsets:
# 187
# 15187
# 30897
# 44340
# 61695
# 77072
# 92785
# 109025
# 123747
# 148322
#
# Disc length: 2184 seconds
#
#
# Revision: 0
# Processed by: cddbd v1.5.2PL0 Copyright (c) Steve Scherf et al.
# Submitted via: FreeRIP 2.951 
#
DISCID=7708860a
DTITLE=Traveling Wilburys - Traveling Wilburys
DYEAR=1900
DGENRE=Oldies
TTITLE0=Handle With Care
TTITLE1=Dirty World
TTITLE2=Rattled
TTITLE3=Last Night
TTITLE4=Not Alone Any More
TTITLE5=Congratulations
TTITLE6=Heading For The Light
TTITLE7=Margarita
TTITLE8=Tweeter And The Monkey Man
TTITLE9=End Of The Line
EXTD=
EXTT0=
EXTT1=
EXTT2=
EXTT3=
EXTT4=
EXTT5=
EXTT6=
EXTT7=
EXTT8=
EXTT9=
PLAYORDER=
